<svg version="1.1" id="Layer_1" xmlns="http://www.w3.org/2000/svg" xmlns:xlink="http://www.w3.org/1999/xlink" x="0px" y="0px"
	 width="100%" viewBox="0 0 198 180" enable-background="new 0 0 198 180" xml:space="preserve">
<path fill="#0099F0" opacity="1.000000" stroke="none" 
	d="
M69.939049,124.145866 
	C74.930130,125.119125 79.895767,126.259651 84.918686,127.023529 
	C91.277977,127.990646 97.683846,128.651443 104.620621,129.869690 
	C106.238831,131.298569 107.153900,132.577026 108.396049,133.264465 
	C127.628517,143.908432 146.903427,154.475723 166.168503,165.060776 
	C158.343430,171.005219 149.455933,172.607483 139.986694,171.026535 
	C134.797714,170.160202 129.715836,168.652344 124.191345,166.867096 
	C123.681686,160.321075 119.527672,157.531631 114.655792,154.901627 
	C108.924072,151.127655 103.475647,147.537491 97.824234,143.687729 
	C95.082367,141.615265 92.543495,139.802399 89.798210,137.729187 
	C86.407089,135.288803 83.222374,133.108765 79.828552,130.671814 
	C77.111923,128.922760 74.604393,127.430634 71.900749,125.737167 
	C71.116104,125.072510 70.527580,124.609184 69.939049,124.145866 
z"/>
<path fill="#009FF0" opacity="1.000000" stroke="none" 
	d="
M166.489441,164.969482 
	C146.903427,154.475723 127.628517,143.908432 108.396049,133.264465 
	C107.153900,132.577026 106.238831,131.298569 105.028046,129.966827 
	C112.670372,127.805847 120.456268,125.973053 128.732941,124.450714 
	C130.202179,125.841599 130.978821,127.302757 132.189743,127.944679 
	C147.529755,136.076477 162.932266,144.090424 178.318817,152.134399 
	C174.482666,156.382324 170.646515,160.630264 166.489441,164.969482 
z"/>
<path fill="#00A2EF" opacity="1.000000" stroke="none" 
	d="
M178.569397,151.899872 
	C162.932266,144.090424 147.529755,136.076477 132.189743,127.944679 
	C130.978821,127.302757 130.202179,125.841599 129.112823,124.443268 
	C142.220520,119.611732 155.682617,116.145706 168.983246,122.999084 
	C184.714584,131.104935 186.989731,133.842316 178.569397,151.899872 
z"/>
<path fill="#00A1EF" opacity="1.000000" stroke="none" 
	d="
M84.147789,104.436211 
	C82.223480,104.934563 80.323479,105.577118 78.370651,105.906281 
	C69.967354,107.322708 62.247780,106.174217 57.064697,98.607002 
	C52.117424,91.384048 52.031723,83.516228 56.026993,75.892723 
	C60.223915,67.884445 67.417557,65.191856 76.466446,66.407021 
	C75.866135,72.855759 74.520500,78.804337 74.114182,84.816406 
	C73.678688,91.260170 74.508377,91.742561 81.009399,92.415596 
	C82.059364,96.695457 83.103577,100.565834 84.147789,104.436211 
z"/>
<path fill="#00A8F2" opacity="1.000000" stroke="none" 
	d="
M81.003662,92.006111 
	C74.508377,91.742561 73.678688,91.260170 74.114182,84.816406 
	C74.520500,78.804337 75.866135,72.855759 76.901672,66.520966 
	C80.811409,66.997421 84.786827,67.387642 88.389542,68.757828 
	C96.302704,71.767357 104.042778,71.010750 112.022926,68.965714 
	C111.098061,70.091530 110.014801,71.003456 108.667053,72.060127 
	C107.613472,72.822273 106.824379,73.439674 105.747253,74.208679 
	C103.854813,75.844398 102.250412,77.328506 100.362106,78.947029 
	C98.357330,80.711777 96.636467,82.342110 94.638046,84.117348 
	C93.219574,85.165634 92.078659,86.069016 90.608383,87.077789 
	C87.187233,88.790817 84.095451,90.398468 81.003662,92.006111 
z"/>
<path fill="#935FF3" opacity="1.000000" stroke="none" 
	d="
M47.977875,170.919281 
	C45.476131,170.554565 42.974392,170.189835 40.172050,169.209839 
	C39.650688,166.801697 39.713085,164.916443 39.163166,163.230972 
	C35.627640,152.394745 32.030476,141.576950 28.270124,130.817215 
	C27.534883,128.713409 25.996141,126.890396 24.827999,124.937874 
	C26.932135,123.900307 29.036270,122.862740 31.613808,122.165680 
	C35.802879,133.280075 39.594631,144.028564 43.201702,154.838699 
	C44.970585,160.139893 46.396652,165.555466 47.977875,170.919281 
z"/>
<path fill="#776CF3" opacity="1.000000" stroke="none" 
	d="
M65.976105,169.048553 
	C64.238831,169.440369 62.501549,169.832199 60.297455,169.791656 
	C55.568886,156.608337 51.268272,143.870148 47.070206,131.098267 
	C45.884808,127.491920 44.999489,123.786934 44.383598,120.112000 
	C46.780357,121.153946 50.009518,121.769768 50.567417,123.336685 
	C55.960098,138.482666 60.903980,153.788437 65.976105,169.048553 
z"/>
<path fill="#6C70F1" opacity="1.000000" stroke="none" 
	d="
M66.364487,169.065491 
	C60.903980,153.788437 55.960098,138.482666 50.567417,123.336685 
	C50.009518,121.769768 46.780357,121.153946 43.958794,119.982529 
	C42.844112,119.781052 42.561291,119.693848 42.278473,119.606659 
	C46.902702,119.756943 51.526928,119.907227 56.587711,120.558960 
	C58.021004,124.717697 58.863251,128.425644 60.042755,132.023010 
	C63.954102,143.952271 67.986893,155.841690 71.973106,167.746399 
	C70.233025,168.191742 68.492950,168.637100 66.364487,169.065491 
z"/>
<path fill="#8964F4" opacity="1.000000" stroke="none" 
	d="
M48.396919,171.033661 
	C46.396652,165.555466 44.970585,160.139893 43.201702,154.838699 
	C39.594631,144.028564 35.802879,133.280075 31.975203,122.138138 
	C32.815632,121.409004 33.768066,121.047928 35.388008,120.894287 
	C37.227711,122.808723 38.758339,124.373383 39.503559,126.249947 
	C41.574032,131.463684 43.461624,136.761490 45.159393,142.109283 
	C48.200542,151.688568 51.049786,161.328766 53.979244,170.943512 
	C52.258148,171.011673 50.537056,171.079849 48.396919,171.033661 
z"/>
<path fill="#9E5AF4" opacity="1.000000" stroke="none" 
	d="
M24.504698,124.999054 
	C25.996141,126.890396 27.534883,128.713409 28.270124,130.817215 
	C32.030476,141.576950 35.627640,152.394745 39.163166,163.230972 
	C39.713085,164.916443 39.650688,166.801697 39.845291,169.035645 
	C36.990414,168.195175 34.161686,166.913635 31.268967,165.011902 
	C30.985285,162.308197 31.138338,160.098587 30.483358,158.162323 
	C27.095459,148.146851 23.500883,138.201309 19.978371,128.231384 
	C21.379379,127.174339 22.780388,126.117287 24.504698,124.999054 
z"/>
<path fill="#8068F2" opacity="1.000000" stroke="none" 
	d="
M54.365395,170.999832 
	C51.049786,161.328766 48.200542,151.688568 45.159393,142.109283 
	C43.461624,136.761490 41.574032,131.463684 39.503559,126.249947 
	C38.758339,124.373383 37.227711,122.808723 35.695999,120.937210 
	C37.395813,120.359138 39.455139,119.945580 41.896469,119.569336 
	C42.561291,119.693848 42.844112,119.781052 43.551735,119.997711 
	C44.999489,123.786934 45.884808,127.491920 47.070206,131.098267 
	C51.268272,143.870148 55.568886,156.608337 59.911205,169.740875 
	C58.245029,170.433701 56.498291,170.744934 54.365395,170.999832 
z"/>
<path fill="#5879F2" opacity="1.000000" stroke="none" 
	d="
M69.584801,124.040390 
	C70.527580,124.609184 71.116104,125.072510 71.741974,126.040009 
	C72.159721,128.783371 72.299072,131.096695 72.961220,133.249207 
	C76.276070,144.025131 79.727905,154.758911 83.131577,165.507507 
	C81.388008,165.885223 79.644447,166.262955 77.460327,166.211212 
	C75.548775,161.208832 74.064377,156.640167 72.609512,152.062119 
	C69.396545,141.951721 66.198448,131.836624 62.994282,121.723434 
	C65.073036,122.460594 67.151794,123.197762 69.584801,124.040390 
z"/>
<path fill="#4C7FF2" opacity="1.000000" stroke="none" 
	d="
M83.562790,165.512482 
	C79.727905,154.758911 76.276070,144.025131 72.961220,133.249207 
	C72.299072,131.096695 72.159721,128.783371 71.938080,126.241348 
	C74.604393,127.430634 77.111923,128.922760 79.838974,131.077148 
	C81.369408,136.317001 82.628334,140.910263 84.003731,145.468399 
	C85.946518,151.906937 87.975410,158.319489 89.967499,164.743164 
	C87.976334,165.001251 85.985161,165.259338 83.562790,165.512482 
z"/>
<path fill="#6275F1" opacity="1.000000" stroke="none" 
	d="
M62.719955,121.520004 
	C66.198448,131.836624 69.396545,141.951721 72.609512,152.062119 
	C74.064377,156.640167 75.548775,161.208832 77.072304,166.201324 
	C75.631233,167.005035 74.137634,167.389145 72.308578,167.759827 
	C67.986893,155.841690 63.954102,143.952271 60.042755,132.023010 
	C58.863251,128.425644 58.021004,124.717697 56.995071,120.674316 
	C58.792461,120.631012 60.619049,120.973793 62.719955,121.520004 
z"/>
<path fill="#A555F0" opacity="1.000000" stroke="none" 
	d="
M19.658400,128.367706 
	C23.500883,138.201309 27.095459,148.146851 30.483358,158.162323 
	C31.138338,160.098587 30.985285,162.308197 31.073912,164.725327 
	C21.695679,160.106461 13.810295,143.082169 16.174129,132.628448 
	C16.521193,131.093613 18.249311,129.871063 19.658400,128.367706 
z"/>
<path fill="#3F84F1" opacity="1.000000" stroke="none" 
	d="
M90.360886,164.792358 
	C87.975410,158.319489 85.946518,151.906937 84.003731,145.468399 
	C82.628334,140.910263 81.369408,136.317001 80.048080,131.334076 
	C83.222374,133.108765 86.407089,135.288803 89.798828,138.152496 
	C90.567619,141.749664 90.914474,144.725418 91.736771,147.563416 
	C93.348495,153.125977 95.225136,158.611771 96.992134,164.129333 
	C94.912842,164.366745 92.833557,164.604156 90.360886,164.792358 
z"/>
<path fill="#2C8AF1" opacity="1.000000" stroke="none" 
	d="
M98.027214,143.947327 
	C103.475647,147.537491 108.924072,151.127655 114.675301,155.324814 
	C115.328812,159.186096 115.679527,162.440384 116.030243,165.694672 
	C115.385551,165.600800 114.740860,165.506927 113.417694,165.223663 
	C112.476662,165.021652 112.214111,165.009018 111.951569,164.996399 
	C109.516151,164.840057 107.080742,164.683731 104.217560,163.976074 
	C101.868927,156.932297 99.948074,150.439804 98.027214,143.947327 
z"/>
<path fill="#3B86F1" opacity="1.000000" stroke="none" 
	d="
M100.646019,78.812622 
	C102.250412,77.328506 103.854813,75.844398 105.898697,74.517456 
	C110.907104,85.046951 115.476013,95.419281 120.044922,105.791611 
	C117.607109,105.248405 115.169289,104.705200 112.331505,103.635651 
	C108.169701,95.010414 104.407860,86.911514 100.646019,78.812622 
z"/>
<path fill="#0099F0" opacity="1.000000" stroke="none" 
	d="
M81.009399,92.415596 
	C84.095451,90.398468 87.187233,88.790817 90.812607,87.364876 
	C93.582245,92.544327 95.818298,97.542068 98.054352,102.539803 
	C93.704391,103.167671 89.354439,103.795547 84.576134,104.429817 
	C83.103577,100.565834 82.059364,96.695457 81.009399,92.415596 
z"/>
<path fill="#6C70F1" opacity="1.000000" stroke="none" 
	d="
M139.016159,100.978882 
	C137.862076,101.930153 136.707993,102.881432 134.945007,103.725449 
	C128.901871,91.440392 123.467644,79.262596 118.033417,67.084801 
	C119.451866,66.732727 120.870323,66.380646 122.669296,66.456810 
	C127.533348,77.468994 131.983536,88.067375 136.556396,98.612572 
	C136.974075,99.575768 138.177567,100.198212 139.016159,100.978882 
z"/>
<path fill="#517CF0" opacity="1.000000" stroke="none" 
	d="
M108.931541,71.915382 
	C110.014801,71.003456 111.098061,70.091530 112.477463,68.914551 
	C112.773613,68.649506 112.891716,68.695076 113.036606,69.083267 
	C116.239349,75.938797 119.447548,82.340492 122.309273,88.893478 
	C124.765015,94.516808 126.824562,100.313171 129.059311,106.033012 
	C126.936333,106.132553 124.813347,106.232101 122.618637,106.015823 
	C122.644226,104.171440 123.309517,102.383705 122.748993,101.155312 
	C118.274239,91.348869 113.567314,81.648354 108.931541,71.915382 
z"/>
<path fill="#5E77F2" opacity="1.000000" stroke="none" 
	d="
M129.396118,106.054420 
	C126.824562,100.313171 124.765015,94.516808 122.309273,88.893478 
	C119.447548,82.340492 116.239349,75.938797 113.024986,69.145493 
	C112.868477,68.819519 112.964798,68.828178 113.243752,68.815979 
	C114.034302,68.534431 114.545898,68.265083 115.057495,67.995728 
	C115.835915,67.678574 116.614326,67.361427 117.713074,67.064545 
	C123.467644,79.262596 128.901871,91.440392 134.623367,103.782028 
	C134.242920,104.313431 133.575195,104.680977 132.389832,105.145988 
	C131.576584,105.370026 131.292099,105.517960 131.018723,105.687256 
	C130.590118,105.816780 130.161514,105.946304 129.396118,106.054420 
z"/>
<path fill="#2C8AF1" opacity="1.000000" stroke="none" 
	d="
M100.362106,78.947029 
	C104.407860,86.911514 108.169701,95.010414 111.986572,103.479630 
	C109.957306,103.560493 107.873016,103.271034 105.234291,102.591034 
	C103.646400,99.938484 102.742683,97.605392 101.550980,95.430077 
	C99.431129,91.560501 97.136902,87.786453 94.915604,83.972450 
	C96.636467,82.342110 98.357330,80.711777 100.362106,78.947029 
z"/>
<path fill="#776CF3" opacity="1.000000" stroke="none" 
	d="
M139.309082,100.856232 
	C138.177567,100.198212 136.974075,99.575768 136.556396,98.612572 
	C131.983536,88.067375 127.533348,77.468994 123.035553,66.502792 
	C124.416077,66.033791 125.810867,65.947052 127.626007,66.375832 
	C132.678284,77.187881 137.310211,87.484406 141.942139,97.780937 
	C141.162094,98.765152 140.382050,99.749367 139.309082,100.856232 
z"/>
<path fill="#8068F2" opacity="1.000000" stroke="none" 
	d="
M81.853073,45.049992 
	C81.210075,43.600441 80.567070,42.150890 80.430206,40.348846 
	C93.612167,40.662388 106.287987,41.328426 118.963814,41.994461 
	C118.506493,43.209000 118.049164,44.423534 116.853676,45.827904 
	C110.310165,45.826080 104.505417,45.613209 98.699295,45.448845 
	C93.084625,45.289906 87.468536,45.180923 81.853073,45.049992 
z"/>
<path fill="#3B86F1" opacity="1.000000" stroke="none" 
	d="
M97.824234,143.687729 
	C99.948074,150.439804 101.868927,156.932297 103.861366,163.802490 
	C101.902992,164.232025 99.873032,164.283813 97.417603,164.232483 
	C95.225136,158.611771 93.348495,153.125977 91.736771,147.563416 
	C90.914474,144.725418 90.567619,141.749664 90.005234,138.412842 
	C92.543495,139.802399 95.082367,141.615265 97.824234,143.687729 
z"/>
<path fill="#8068F2" opacity="1.000000" stroke="none" 
	d="
M142.212509,97.579498 
	C137.310211,87.484406 132.678284,77.187881 128.030640,66.503525 
	C128.187134,66.094254 128.359344,66.072815 129.049423,66.264359 
	C129.938629,66.630127 130.309998,66.782928 130.681351,66.935730 
	C131.653976,67.127052 132.626587,67.318382 133.824280,68.125381 
	C136.790512,75.541794 139.469177,82.369255 142.350342,89.110161 
	C142.718842,89.972343 144.142212,90.383659 145.076889,91.003845 
	C144.212219,93.128586 143.347549,95.253326 142.212509,97.579498 
z"/>
<path fill="#935FF3" opacity="1.000000" stroke="none" 
	d="
M81.906425,45.363594 
	C87.468536,45.180923 93.084625,45.289906 98.699295,45.448845 
	C104.505417,45.613209 110.310165,45.826080 116.587280,46.020523 
	C115.896584,47.602951 114.734123,49.182590 112.846832,50.831253 
	C102.947647,50.315598 93.773293,49.730923 84.598946,49.146248 
	C83.719223,47.989895 82.839500,46.833546 81.906425,45.363594 
z"/>
<path fill="#776CF3" opacity="1.000000" stroke="none" 
	d="
M119.143028,41.729233 
	C106.287987,41.328426 93.612167,40.662388 80.478065,39.995674 
	C79.836159,39.200665 79.652527,38.406334 79.966339,37.308529 
	C93.576431,37.666492 106.689064,38.327930 119.801704,38.989368 
	C119.641884,39.814247 119.482063,40.639122 119.143028,41.729233 
z"/>
<path fill="#4781F2" opacity="1.000000" stroke="none" 
	d="
M108.667053,72.060127 
	C113.567314,81.648354 118.274239,91.348869 122.748993,101.155312 
	C123.309517,102.383705 122.644226,104.171440 122.289444,105.876984 
	C121.582649,106.040192 121.133324,106.026428 120.364456,105.902138 
	C115.476013,95.419281 110.907104,85.046951 106.186745,74.365845 
	C106.824379,73.439674 107.613472,72.822273 108.667053,72.060127 
z"/>
<path fill="#9E5AF4" opacity="1.000000" stroke="none" 
	d="
M84.764999,49.451111 
	C93.773293,49.730923 102.947647,50.315598 112.536163,50.946159 
	C104.350853,58.484650 93.723991,58.015850 84.764999,49.451111 
z"/>
<path fill="#6275F1" opacity="1.000000" stroke="none" 
	d="
M119.722031,31.999512 
	C119.839333,32.745857 119.956642,33.492207 119.549065,34.615463 
	C107.906700,34.654709 96.787621,34.359230 85.673233,33.939789 
	C83.714020,33.865849 81.774361,33.273647 79.825668,32.920780 
	C79.867462,32.177799 79.909256,31.434816 80.510963,30.354935 
	C93.954590,30.678530 106.838310,31.339020 119.722031,31.999512 
z"/>
<path fill="#8964F4" opacity="1.000000" stroke="none" 
	d="
M145.148483,90.705742 
	C144.142212,90.383659 142.718842,89.972343 142.350342,89.110161 
	C139.469177,82.369255 136.790512,75.541794 134.038452,68.348404 
	C143.284439,72.391327 147.868484,81.586784 145.148483,90.705742 
z"/>
<path fill="#6C70F1" opacity="1.000000" stroke="none" 
	d="
M79.662399,33.234932 
	C81.774361,33.273647 83.714020,33.865849 85.673233,33.939789 
	C96.787621,34.359230 107.906700,34.654709 119.482147,34.991428 
	C119.970345,36.064564 120.000565,37.138641 119.916245,38.601044 
	C106.689064,38.327930 93.576431,37.666492 80.034195,37.007065 
	C79.569443,35.855743 79.534286,34.702412 79.662399,33.234932 
z"/>
<path fill="#5E77F2" opacity="1.000000" stroke="none" 
	d="
M119.735580,31.685455 
	C106.838310,31.339020 93.954590,30.678530 80.655045,30.008619 
	C80.529732,29.093452 80.820259,28.187704 81.772141,27.086536 
	C94.341072,27.264578 106.248657,27.638035 118.156235,28.011494 
	C118.687202,29.131462 119.218170,30.251431 119.735580,31.685455 
z"/>
<path fill="#3B86F1" opacity="1.000000" stroke="none" 
	d="
M86.972328,19.980070 
	C95.293198,13.599243 104.311111,13.680168 112.809830,20.664749 
	C104.062202,20.737188 95.517265,20.358629 86.972328,19.980070 
z"/>
<path fill="#4781F2" opacity="1.000000" stroke="none" 
	d="
M86.685692,20.050720 
	C95.517265,20.358629 104.062202,20.737188 112.993690,20.961948 
	C114.232018,21.630230 115.083801,22.452311 115.642090,23.762463 
	C106.746063,24.360899 98.141365,24.602291 89.542999,24.460295 
	C88.003433,24.434870 86.490036,22.824553 84.964561,21.946016 
	C85.442726,21.337801 85.920891,20.729586 86.685692,20.050720 
z"/>
<path fill="#198DED" opacity="1.000000" stroke="none" 
	d="
M94.638046,84.117348 
	C97.136902,87.786453 99.431129,91.560501 101.550980,95.430077 
	C102.742683,97.605392 103.646400,99.938484 104.849434,102.498749 
	C102.978241,102.774498 100.937477,102.751984 98.475533,102.634636 
	C95.818298,97.542068 93.582245,92.544327 91.141975,87.259491 
	C92.078659,86.069016 93.219574,85.165634 94.638046,84.117348 
z"/>
<path fill="#517CF0" opacity="1.000000" stroke="none" 
	d="
M84.664612,22.099499 
	C86.490036,22.824553 88.003433,24.434870 89.542999,24.460295 
	C98.141365,24.602291 106.746063,24.360899 115.719650,24.052349 
	C116.800797,25.008677 117.510902,26.163187 118.188614,27.664595 
	C106.248657,27.638035 94.341072,27.264578 81.956787,26.864365 
	C82.441605,25.309401 83.403130,23.781191 84.664612,22.099499 
z"/>
<path fill="#198DED" opacity="1.000000" stroke="none" 
	d="
M116.358032,165.818985 
	C115.679527,162.440384 115.328812,159.186096 114.958588,155.508621 
	C119.527672,157.531631 123.681686,160.321075 123.870995,166.676086 
	C121.525253,166.682281 119.105530,166.312790 116.358032,165.818985 
z"/>
<path fill="#517CF0" opacity="1.000000" stroke="none" 
	d="
M114.741776,67.974442 
	C114.545898,68.265083 114.034302,68.534431 113.239334,68.864136 
	C113.445999,68.600708 113.936028,68.276932 114.741776,67.974442 
z"/>
<path fill="#776CF3" opacity="1.000000" stroke="none" 
	d="
M130.492432,66.666367 
	C130.309998,66.782928 129.938629,66.630127 129.297760,66.342407 
	C129.453339,66.270653 129.878418,66.333824 130.492432,66.666367 
z"/>
<path fill="#517CF0" opacity="1.000000" stroke="none" 
	d="
M131.273361,105.683983 
	C131.292099,105.517960 131.576584,105.370026 132.097382,105.156998 
	C132.057709,105.273926 131.792862,105.477310 131.273361,105.683983 
z"/>
<path fill="#198DED" opacity="1.000000" stroke="none" 
	d="
M112.127670,165.112549 
	C112.214111,165.009018 112.476662,165.021652 113.136459,165.052734 
	C113.123726,165.123688 112.713753,165.176178 112.127670,165.112549 
z"/>
</svg>